<?xml version="1.0" standalone="no"?>
<!DOCTYPE svg PUBLIC "-//W3C//DTD SVG 20010904//EN"
 "http://www.w3.org/TR/2001/REC-SVG-20010904/DTD/svg10.dtd">
<svg version="1.0" xmlns="http://www.w3.org/2000/svg"
 width="50.000000pt" height="50.000000pt" viewBox="0 0 50.000000 50.000000"
 preserveAspectRatio="xMidYMid meet">
<metadata>
Created by potrace 1.10, written by Peter Selinger 2001-2011
</metadata>
<g transform="translate(0.000000,50.000000) scale(0.100000,-0.100000)"
fill="#000000" stroke="none">
<path d="M300 425 c0 -25 0 -25 -98 -25 -90 0 -100 -2 -118 -22 -36 -42 -67
-120 -77 -199 -9 -66 -8 -81 6 -102 15 -23 19 -24 161 -26 l146 -2 0 26 c0 22
4 25 38 25 29 0 39 -5 47 -22 15 -34 64 -31 84 4 13 22 13 39 4 101 -6 42 -20
95 -32 119 -11 25 -21 58 -21 74 0 46 -36 74 -93 74 -43 0 -47 -2 -47 -25z
m102 -12 c15 -14 18 -33 18 -136 0 -137 -9 -157 -67 -157 l-33 0 0 155 0 155
32 0 c17 0 40 -7 50 -17z m-222 -188 l0 -155 -32 0 c-60 0 -68 18 -68 153 0
137 9 157 67 157 l33 0 0 -155z m120 0 l0 -155 -50 0 -50 0 0 155 0 155 50 0
50 0 0 -155z m-237 -155 c-2 -2 -12 1 -21 7 -21 13 -22 105 -1 173 l14 45 5
-110 c3 -60 4 -112 3 -115z m403 153 c8 -32 14 -74 14 -93 0 -56 -38 -81 -60
-39 -9 16 -8 24 4 38 12 13 16 38 16 91 0 40 3 71 6 67 4 -3 13 -32 20 -64z"/>
<path d="M352 374 c-11 -12 -10 -17 2 -30 15 -14 17 -14 32 0 14 14 14 18 0
31 -18 18 -18 18 -34 -1z"/>
<path d="M354 279 c-10 -17 13 -36 27 -22 12 12 4 33 -11 33 -5 0 -12 -5 -16
-11z"/>
<path d="M114 319 c-10 -17 13 -36 27 -22 12 12 4 33 -11 33 -5 0 -12 -5 -16
-11z"/>
<path d="M112 234 c-11 -12 -10 -17 2 -30 15 -14 17 -14 32 0 14 14 14 18 0
31 -18 18 -18 18 -34 -1z"/>
<path d="M220 260 c0 -27 3 -30 30 -30 27 0 30 3 30 30 0 27 -3 30 -30 30 -27
0 -30 -3 -30 -30z"/>
</g>
</svg>
